<svg width="31" height="31" viewBox="0 0 31 31" fill="none" xmlns="http://www.w3.org/2000/svg">
<path fill-rule="evenodd" clip-rule="evenodd" d="M15.8785 22.8715C15.6363 22.6293 15.5003 22.3008 15.5003 21.9583C15.5003 21.6158 15.6363 21.2873 15.8785 21.0451L21.4236 15.5L15.8785 9.95485C15.6432 9.71124 15.513 9.38496 15.5159 9.04629C15.5189 8.70762 15.6547 8.38365 15.8942 8.14416C16.1337 7.90468 16.4576 7.76883 16.7963 7.76589C17.135 7.76295 17.4613 7.89314 17.7049 8.12843L24.1632 14.5868C24.4054 14.829 24.5414 15.1575 24.5414 15.5C24.5414 15.8425 24.4053 16.171 24.1632 16.4132L17.7049 22.8715C17.4626 23.1137 17.1342 23.2497 16.7917 23.2497C16.4492 23.2497 16.1207 23.1137 15.8785 22.8715ZM8.12845 22.8715C7.8863 22.6293 7.75027 22.3008 7.75027 21.9583C7.75027 21.6158 7.8863 21.2873 8.12845 21.0451L13.6736 15.5L8.12845 9.95485C7.89316 9.71123 7.76297 9.38496 7.76591 9.04629C7.76886 8.70761 7.9047 8.38365 8.14419 8.14416C8.38367 7.90468 8.70764 7.76883 9.04631 7.76589C9.38498 7.76295 9.71126 7.89314 9.95487 8.12843L16.4132 14.5868C16.6554 14.829 16.7914 15.1575 16.7914 15.5C16.7914 15.8425 16.6554 16.171 16.4132 16.4132L9.95487 22.8715C9.71264 23.1137 9.38416 23.2497 9.04166 23.2497C8.69915 23.2497 8.37067 23.1137 8.12845 22.8715Z" fill="#E15C47"/>
</svg>
