<svg width="20" height="23" viewBox="0 0 20 23" fill="none" xmlns="http://www.w3.org/2000/svg">
<path d="M11.4487 19.8998C11.7006 19.8998 11.9423 20.0104 12.1204 20.2074C12.2986 20.4043 12.3987 20.6714 12.3987 20.9499C12.3987 21.2284 12.2986 21.4955 12.1204 21.6924C11.9423 21.8894 11.7006 22 11.4487 22C11.1967 22 10.955 21.8894 10.7769 21.6924C10.5987 21.4955 10.4986 21.2284 10.4986 20.9499C10.4986 20.6714 10.5987 20.4043 10.7769 20.2074C10.955 20.0104 11.1967 19.8998 11.4487 19.8998ZM8.12351 18.8497C8.37547 18.8497 8.61712 18.9603 8.79529 19.1573C8.97346 19.3542 9.07355 19.6213 9.07355 19.8998C9.07355 20.1783 8.97346 20.4454 8.79529 20.6423C8.61712 20.8393 8.37547 20.9499 8.12351 20.9499C7.87154 20.9499 7.62989 20.8393 7.45172 20.6423C7.27356 20.4454 7.17346 20.1783 7.17346 19.8998C7.17346 19.6213 7.27356 19.3542 7.45172 19.1573C7.62989 18.9603 7.87154 18.8497 8.12351 18.8497ZM14.7738 18.8497C15.0258 18.8497 15.2674 18.9603 15.4456 19.1573C15.6238 19.3542 15.7239 19.6213 15.7239 19.8998C15.7239 20.1783 15.6238 20.4454 15.4456 20.6423C15.2674 20.8393 15.0258 20.9499 14.7738 20.9499C14.5218 20.9499 14.2802 20.8393 14.102 20.6423C13.9239 20.4454 13.8238 20.1783 13.8238 19.8998C13.8238 19.6213 13.9239 19.3542 14.102 19.1573C14.2802 18.9603 14.5218 18.8497 14.7738 18.8497ZM11.4506 5.20786C14.4603 5.20786 16.1685 7.40992 16.4164 10.0698H16.4924C16.9525 10.0691 17.4082 10.1686 17.8335 10.3626C18.2588 10.5566 18.6453 10.8413 18.971 11.2005C19.2967 11.5596 19.5553 11.9862 19.7318 12.4558C19.9084 12.9254 19.9995 13.4288 20 13.9373C19.9994 14.4458 19.9082 14.9491 19.7315 15.4186C19.5549 15.8881 19.2964 16.3145 18.9707 16.6735C18.645 17.0326 18.2585 17.3172 17.8333 17.5111C17.4081 17.705 16.9524 17.8045 16.4924 17.8038H6.40773C5.94773 17.8045 5.49212 17.705 5.0669 17.5111C4.64168 17.3172 4.25518 17.0326 3.92947 16.6735C3.60377 16.3145 3.34523 15.8881 3.16862 15.4186C2.99201 14.9491 2.90079 14.4458 2.90016 13.9373C2.90066 13.4288 2.99179 12.9254 3.16834 12.4558C3.3449 11.9862 3.60342 11.5596 3.92914 11.2005C4.25486 10.8413 4.6414 10.5566 5.06668 10.3626C5.49196 10.1686 5.94765 10.0691 6.40773 10.0698H6.48373C6.73359 7.39206 8.44082 5.20786 11.4506 5.20786ZM11.4506 6.77986C9.48207 6.77986 7.76724 8.49572 7.76724 10.8647C7.76724 11.2396 7.46418 11.5347 7.11741 11.5347H6.46188C5.26292 11.5347 4.29198 12.5848 4.29198 13.8827C4.29198 15.1796 5.26292 16.2308 6.46093 16.2308H16.4392C17.6372 16.2308 18.6082 15.1807 18.6082 13.8827C18.6082 12.5859 17.6372 11.5347 16.4392 11.5347H15.7837C15.4369 11.5347 15.1339 11.2407 15.1339 10.8647C15.1339 8.46527 13.4181 6.77986 11.4506 6.77986ZM3.24693 9.57102C3.313 9.74689 3.31918 9.94325 3.26433 10.1238C3.20949 10.3043 3.09733 10.4567 2.94862 10.5529L2.86216 10.6001L1.98147 11.0034C1.81488 11.0784 1.62876 11.081 1.46049 11.0107C1.29222 10.9404 1.15425 10.8023 1.07427 10.6241C0.994302 10.446 0.978246 10.2411 1.02933 10.0504C1.08042 9.85973 1.19486 9.69748 1.34969 9.59622L1.43615 9.54792L2.31684 9.14468C2.4033 9.10509 2.49596 9.08472 2.58955 9.08472C2.68313 9.08472 2.7758 9.1051 2.86226 9.14469C2.94871 9.18428 3.02727 9.2423 3.09344 9.31546C3.1596 9.38861 3.21113 9.47545 3.24693 9.57102ZM9.41081 4.49589L9.24836 4.5568C8.75425 4.74822 8.28723 5.01622 7.86129 5.35277C7.40381 5.18821 6.91136 5.18492 6.45211 5.34336C5.99287 5.5018 5.58954 5.81412 5.29797 6.2371C5.00639 6.66008 4.841 7.17279 4.82468 7.70425C4.80836 8.23571 4.94192 8.75963 5.20687 9.20349C4.74351 9.34714 4.30473 9.5742 3.90816 9.87555C3.47273 9.04831 3.31008 8.07986 3.44789 7.13499C3.58571 6.19013 4.01548 5.32725 4.66406 4.69318C5.31264 4.05911 6.13995 3.69304 7.00522 3.65726C7.87049 3.62148 8.72024 3.9182 9.40986 4.49694M1.89217 4.52949L1.99192 4.56625L2.87166 4.96948C3.03665 5.04636 3.16941 5.18907 3.24352 5.36923C3.31763 5.54938 3.32766 5.75378 3.27161 5.94174C3.21557 6.1297 3.09756 6.28744 2.94106 6.38359C2.78456 6.47974 2.60105 6.50724 2.42704 6.46063L2.32634 6.42492L1.4466 6.02168C1.28117 5.94504 1.14799 5.80225 1.07363 5.62182C0.999275 5.44139 0.989221 5.23661 1.04548 5.04835C1.10173 4.86009 1.22015 4.7022 1.3771 4.60622C1.53405 4.51023 1.71798 4.48216 1.89217 4.52949ZM5.51659 1.39495L5.55934 1.4905L5.92415 2.4629C5.99304 2.6472 5.99611 2.85353 5.93275 3.04024C5.86938 3.22694 5.7443 3.38013 5.58274 3.46889C5.42118 3.55764 5.23518 3.57535 5.06227 3.51844C4.88936 3.46153 4.74241 3.33424 4.6511 3.16226L4.60739 3.06565L4.24258 2.09326C4.17467 1.90912 4.1723 1.7034 4.23594 1.51741C4.29958 1.33142 4.42451 1.17892 4.58566 1.09052C4.74681 1.00212 4.93224 0.984378 5.10474 1.04084C5.27724 1.09731 5.42497 1.22381 5.51659 1.39495ZM9.65118 1.05996C9.80909 1.13214 9.93827 1.26464 10.0152 1.4333C10.0921 1.60197 10.1116 1.79557 10.0701 1.9788L10.0369 2.08906L9.67303 3.06145C9.60449 3.24551 9.47546 3.39405 9.31186 3.47722C9.14827 3.56039 8.96226 3.57202 8.79123 3.50976C8.62019 3.4475 8.47683 3.31597 8.38997 3.14163C8.30311 2.96728 8.27918 2.76305 8.32301 2.57001L8.35627 2.4587L8.72013 1.4863C8.75593 1.39073 8.80841 1.30389 8.87458 1.23074C8.94074 1.15759 9.0193 1.09956 9.10576 1.05997C9.19222 1.02038 9.28488 1 9.37847 1C9.47205 0.999999 9.56472 1.02037 9.65118 1.05996Z" fill="white"/>
</svg>
